<svg id="Слой_1" data-name="Слой 1" xmlns="http://www.w3.org/2000/svg" viewBox="0 0 510.19 511.35"><defs><style>.cls-1{fill:#44b044;}.cls-2{fill:#baecbe;}.cls-3{fill:#f7faf6;}.cls-4{fill:#f6f9f6;}.cls-5{fill:#f8f9f7;}.cls-6{fill:#f7f9f7;}.cls-7{fill:#f6f9f5;}.cls-8{fill:#fafdf9;}.cls-9{fill:#f2f8f2;}.cls-10{fill:#e9f5e8;}.cls-11{fill:#eaf7ea;}.cls-12{fill:#45b046;}.cls-13{fill:#45b044;}.cls-14{fill:#47b146;}</style></defs><title>logo</title><path class="cls-1" d="M429,639q0-252.75-.09-505.5c0-3.75.84-4.6,4.59-4.59q250.5.15,501,0c3.75,0,4.6.84,4.59,4.59Q938.94,386.25,939,639c-1.73.94-3.6.48-5.39.48q-249.61,0-499.22,0C432.6,639.48,430.73,639.94,429,639Z" transform="translate(-428.91 -128.91)"/><path class="cls-2" d="M429,639c6.66,0,13.31-.07,20-.07l482.56,0c2.49,0,5,0,7.47,0-.9,2.07-2.7.93-4,.94-21.67.08-43.33.06-65,.06q-218.25,0-436.5-.06C432,639.94,430.11,641.09,429,639Z" transform="translate(-428.91 -128.91)"/><path class="cls-3" d="M523,386.45q0-81.21,0-162.44c0-6.69,1.33-12.47,7.36-16.42a12.84,12.84,0,0,1,6.48-2.28c3.16-.16,6.32-.31,9.48-.31q138.71,0,277.41,0a78.9,78.9,0,0,1,8,.27q13.26,1.4,14.55,14.82c.29,3.14.37,6.31.37,9.47q0,160,0,319.9c0,12.11-4.31,18.61-13.48,20.18a22.94,22.94,0,0,1-4,.21l-281.9-.05c-2.83,0-5.67.26-8.49.12-9-.43-14.82-6.06-15.63-15-.16-1.82-.16-3.66-.16-5.49Q523,467.92,523,386.45Z" transform="translate(-428.91 -128.91)"/><path class="cls-1" d="M534,388q0-79.23,0-158.46v-2.5c.06-10,.87-10.84,10.73-10.84H826.17c7.81,0,8.94,1.05,9.22,8.81.07,1.83.05,3.66.05,5.5V545c0,13.86,0,13.86-13.68,13.86H543.83c-8.6-.07-9.81-1.25-9.81-9.84Q534,468.5,534,388Z" transform="translate(-428.91 -128.91)"/><path class="cls-4" d="M799.39,385.43c10.8,5.92,15.08,14.26,13.14,24.88-1.88,10.23-9.31,17.57-20.61,18.57-10.76.95-21.63.62-32.45.8-2.57.05-4.07-1.29-4.23-3.89-.26-4.15-2.91-5.21-6.49-5.22a61.09,61.09,0,0,1-6.49-.19c-2.84-.32-4.64-2.06-4.68-4.94,0-3.08,1.74-5,4.84-5.31,1.81-.2,3.66-.07,5.49-.11,3.68-.07,7.33-.32,7.24-5.35-.08-4.74-3.27-5.53-7.19-5.52-16.33.06-32.66,0-49,0-6.16,0-12.33-.08-18.49,0-3.61.05-6.49-.91-6.53-5.05s2.69-5.52,6.64-5.51c21.16.05,42.32,0,63.48-.06,2.17,0,4.33-.06,6.49-.22,2.85-.22,4.76-1.61,4.73-4.69s-1.66-5-4.83-5.3c-1.82-.16-3.66-.13-5.49-.14-5.83,0-11.66-.06-17.49,0-3.82,0-7.71.14-8.16-5-.33-3.76,2.13-5.18,8.42-5.19,6.67,0,13.33,0,20,0a16.13,16.13,0,0,0,3.48-.17c2.56-.57,4.11-2.15,4-4.91a4.36,4.36,0,0,0-3.81-4.57A38.77,38.77,0,0,0,745,358c-17.66,0-35.33,0-53,0a24.18,24.18,0,0,1-5-.39c-2.7-.57-3.07-2.87-3-5.06.09-2,.68-4,3.2-4.41a27.94,27.94,0,0,1,4-.29q45.48,0,91,0c7,0,13.48,1.65,18.91,6.38,8.3,7.23,8.86,22.64.42,28.78A15.66,15.66,0,0,0,799.39,385.43Z" transform="translate(-428.91 -128.91)"/><path class="cls-5" d="M745,478V493.7c0,10.33-.12,20.66,0,31,.05,4.08-1.57,6.43-5.7,6.4s-5.24-2.82-5.24-6.41q0-34.5-.06-69c0-3,1-5.52,3.8-6.36,3-.9,5,.82,6.64,3.6,7.47,13,13.54,26.63,20.43,39.88,2.91,5.6,5.62,11.3,8.36,17,1.26,2.61,2.27,2.79,3.92.19,5.19-8.17,8.66-17.18,13-25.77,4.87-9.65,9.45-19.44,14.21-29.15a18.78,18.78,0,0,1,2.63-4.2,5,5,0,0,1,8.71,1.78,14.6,14.6,0,0,1,.49,4.44q0,32.25-.06,64.5a34.49,34.49,0,0,1-.27,5c-.43,2.76-1.91,4.55-5,4.56s-4.78-1.41-5.4-4.19a22.84,22.84,0,0,1-.36-5c0-13.84,0-27.67-.07-41.5,0-1.08.44-2.31-1-3.65-4.4,8.88-8.75,17.56-13,26.28-3.38,6.87-6.67,13.78-10,20.65-1.23,2.52-3,4.37-6.11,4.33s-4.4-2.09-5.54-4.38c-6.82-13.69-13.58-27.41-20.39-41.1-.84-1.69-1.83-3.29-2.75-4.94Z" transform="translate(-428.91 -128.91)"/><path class="cls-5" d="M642.77,491.57c.64-17.37,6.28-32.25,23.36-39.46,23-9.7,49.07,2.3,53.69,31.12,1.66,10.35.75,20.65-4,30.18-7.58,15.34-22.06,23.14-38.73,21.28-16.49-1.84-28.83-13.12-33-30.2A48.22,48.22,0,0,1,642.77,491.57Z" transform="translate(-428.91 -128.91)"/><path class="cls-6" d="M721,319.17v7.49c0,3.28-1.76,5-4.9,5s-5.09-1.39-5.17-4.77l0-1.49c-.36-10.83-.36-10.84-11.46-10.85-14.15,0-28.3.09-42.45-.06-3.42,0-4.92,1.06-4.73,4.55.13,2.49-.07,5-.1,7.49,0,3.2-1.6,5-4.85,5.05s-5.11-1.51-5.17-4.76c-.11-5.32-.14-10.65,0-16,.07-3,1.46-5.23,4.71-5.42,3.08-.19,4.14-2.22,5.14-4.63q11.52-27.6,23.11-55.17c.38-.92.77-1.84,1.12-2.77.94-2.5,2.37-4.47,5.32-4.51,3.18,0,4.58,2.18,5.66,4.74,7.86,18.69,15.76,37.36,23.55,56.08,1.38,3.31,2.57,6.28,6.91,6.67,2.44.21,3.4,2.41,3.39,4.83v8.49Z" transform="translate(-428.91 -128.91)"/><path class="cls-7" d="M635.07,523.59c0,2.66.12,5.33,0,8-.16,3.11-1.79,4.94-5.08,4.91s-5-1.57-5-4.87c0-1.66-.24-3.31-.28-5-.17-7.44-.16-7.45-7.41-7.46-14.32,0-28.64,0-43,0-7.71,0-7.68.07-7.71,7.59a47.52,47.52,0,0,1-.36,5.46c-.37,3-2.29,4.26-5.18,4.24-3.08,0-4.58-1.81-4.65-4.69-.13-5.49-.12-11-.11-16.48,0-2.93,1.62-4.81,4.46-5.06,3-.28,4.27-2.14,5.28-4.56q11.64-28.08,23.31-56.14c.39-.92.88-1.79,1.33-2.68,1-2,2.3-3.68,4.81-3.82,2.82-.15,4.3,1.7,5.24,3.89,4.22,9.77,8.32,19.58,12.45,29.38s8.22,19.62,12.35,29.42c.71,1.66,1.16,3.83,3.26,4.1,6.09.76,6.85,4.78,6.41,9.74-.12,1.33,0,2.67,0,4Z" transform="translate(-428.91 -128.91)"/><path class="cls-4" d="M747.27,323.54c1.64-4.89,3.61-10.85,5.62-16.8q10.75-31.86,21.51-63.7c.93-2.75,1.92-5.68,5.41-5.62s4.47,2.74,5.43,5.61q13.1,39,26.35,77.9c.64,1.87,1.48,3.71,1,5.8-.59,2.47-1.88,4.33-4.49,4.75-2.78.44-4.4-1.21-5.25-3.6q-2.16-6.11-4.08-12.31c-1-3.16-2.53-4.83-6.33-4.66a215.81,215.81,0,0,1-23.45,0c-5.49-.34-7.85,2.2-9.1,6.91-.81,3-1.66,6.06-2.7,9-1,2.75-2.41,5.43-6,4.61S747.39,327.68,747.27,323.54Z" transform="translate(-428.91 -128.91)"/><path class="cls-3" d="M559.11,284.28c0-11.49-.06-23,0-34.47,0-7.33,1.23-8.44,8.41-8.45,12.82,0,25.64,0,38.46,0,2.77,0,5.89-.21,7,3.34,1.34,4.23-1,7.16-6.2,7.23-10.15.13-20.31,0-30.46,0-7.1,0-7.07,0-7,7.25.06,4.66.21,9.34-.08,14-.25,4.1,1.17,5.75,5.37,5.62,6.82-.21,13.65,0,20.48,0,3.89,0,7,.86,7,5.71s-3.25,5.18-6.83,5.2c-7,0-14,.23-21,0-4.16-.13-5.14,1.81-5,5.46.17,5.82.25,11.66,0,17.47-.17,3.75,1.27,5.14,4.89,5.07,9-.16,18-.22,27-.25a58.78,58.78,0,0,1,8,.42c2.61.35,4.07,2,4.16,4.76s-1.13,4.48-3.7,5.16a15.32,15.32,0,0,1-4,.39c-13,0-26,0-39-.07-6,0-7.35-1.28-7.43-7.42-.15-12.15,0-24.31,0-36.46Z" transform="translate(-428.91 -128.91)"/><path class="cls-8" d="M629,387.54c-6.38-4.92-12.36-9.55-18.36-14.17-.65-.5-1.35-.95-2-1.47-2.51-2-4.83-4.25-2.16-7.45,2.51-3,5.32-1.57,7.88.36q16.1,12.17,32.2,24.33c3.53,2.68,3.74,6.11.13,8.59-11.08,7.62-22.29,15.07-33.48,22.53-2.52,1.68-5.16,1.73-7-.93-2-2.87-.45-4.84,2.1-6.55,6.85-4.61,13.61-9.34,20.66-14.21-2.75-1.69-5.27-1.09-7.67-1.1-20.16-.06-40.32,0-60.48-.08-4.44,0-6.43-2-5.64-5.43.68-2.9,2.9-3.34,5.37-3.35q12.24,0,24.49-.08c12.33,0,24.66,0,37,0C624.1,388.52,626.27,388.81,629,387.54Z" transform="translate(-428.91 -128.91)"/><path class="cls-9" d="M708.42,429.77c-4.32,0-8.64,0-13,0-3.11,0-5.21-1.45-5.27-4.68s1.94-4.83,5.08-4.85q13.22,0,26.42,0c3,0,5.21,1.27,5.28,4.65.08,3.77-2.46,4.76-5.59,4.82C717.07,429.82,712.74,429.76,708.42,429.77Z" transform="translate(-428.91 -128.91)"/><path class="cls-10" d="M677.09,425.12c-.18,3.41-2.27,5-5.46,5s-4.79-2.18-4.75-5.15,1.64-5.07,4.87-5S677,421.62,677.09,425.12Z" transform="translate(-428.91 -128.91)"/><path class="cls-11" d="M707,367.91c3.18.18,4.94,1.92,4.81,5.06s-1.92,5-5.09,4.93c-3.38,0-5.33-1.95-5.07-5.35C701.85,369.48,703.71,367.77,707,367.91Z" transform="translate(-428.91 -128.91)"/><path class="cls-1" d="M778,419.17c-2.15,0-4.31.06-6.46,0-7.79-.22-7.78-.24-7.74-7.79,0-5.15.12-10.3,0-15.44-.06-3.21.85-5,4.52-4.8,7.78.34,15.6-.71,23.34.81,5.23,1,8.78,4.14,9.87,9.28,1.14,5.37.69,10.59-4,14.55a15.18,15.18,0,0,1-9.14,3.28c-3.47.23-7,.05-10.45.05Z" transform="translate(-428.91 -128.91)"/><path class="cls-12" d="M776.47,357.78c3.65.2,7.32.2,10.93.66,6.61.83,9.87,4.79,9.85,11.51,0,6.41-3.29,10.08-9.66,11.15-6.61,1.11-13.25.46-19.88.64-3.1.09-4.06-1.42-4-4.29.13-5,.19-10,0-14.95-.11-3.46,1.26-4.83,4.71-4.56,2.65.2,5.32,0,8,0Z" transform="translate(-428.91 -128.91)"/><path class="cls-1" d="M652.61,492.79c.12-15.4,7.12-27.24,17.93-31.55,15-6,30.85.66,37.19,15.54,6.23,14.61,2.34,33.68-8.69,42-8.66,6.53-18.28,8-28.22,3.79C660.59,518.22,655,509.85,653.08,499A51,51,0,0,1,652.61,492.79Z" transform="translate(-428.91 -128.91)"/><path class="cls-13" d="M681.52,254.92c6.71,11.38,10.67,23.53,15.71,35.2,1.58,3.66,3,7.39,4.68,11s.13,4.59-3.11,4.57c-11.47-.09-22.94-.29-34.42-.28-3.93,0-3.39-1.73-2.31-4.34,4.88-11.82,9.55-23.73,14.52-35.51C678,262.15,678.05,258,681.52,254.92Z" transform="translate(-428.91 -128.91)"/><path class="cls-1" d="M596.26,458.58C603,475,609.47,490.71,616,506.35c1.14,2.76.7,3.91-2.55,3.88-11.32-.12-22.64-.07-34,0-3.15,0-4.46-1.31-3.24-4.32q9.1-22.63,18.37-45.22A12.14,12.14,0,0,1,596.26,458.58Z" transform="translate(-428.91 -128.91)"/><path class="cls-14" d="M780.54,258.94q6,18.18,12.09,36.38c1.12,3.35.82,5.42-3.55,5.28-6.33-.21-12.66-.08-19,0-2.79,0-4.13-.9-3.13-3.91q6.25-18.87,12.45-37.76Z" transform="translate(-428.91 -128.91)"/></svg>